<?xml version="1.0" encoding="UTF-8" ?>
<!DOCTYPE svg PUBLIC "-//W3C//DTD SVG 1.1//EN" "http://www.w3.org/Graphics/SVG/1.1/DTD/svg11.dtd">
<svg width="512pt" height="512pt" viewBox="0 0 512 512" version="1.1" xmlns="http://www.w3.org/2000/svg">
<g id="#000000ff">
<path fill="#000000" opacity="1.00" d=" M 251.41 0.00 L 260.53 0.00 C 299.41 0.81 338.13 10.28 372.70 28.15 C 420.13 52.38 459.58 91.82 483.82 139.24 C 501.70 173.81 511.17 212.53 512.00 251.40 L 512.00 260.61 C 511.18 298.75 502.06 336.73 484.82 370.79 C 468.32 403.66 444.64 432.89 415.92 455.85 C 386.77 479.25 352.42 496.16 316.07 504.86 C 297.92 509.33 279.27 511.45 260.61 512.00 L 251.42 512.00 C 208.82 511.14 166.42 499.74 129.43 478.51 C 82.46 451.86 44.36 409.95 22.35 360.63 C 8.18 329.27 0.78 295.00 0.00 260.63 L 0.00 251.38 C 0.77 217.00 8.18 182.72 22.36 151.35 C 44.17 102.49 81.78 60.89 128.16 34.22 C 165.44 12.54 208.32 0.87 251.41 0.00 Z" />
</g>
</svg>
